<?xml version="1.0" encoding="UTF-8" standalone="no"?>
<!-- Created with Inkscape (http://www.inkscape.org/) -->

<svg
   xmlns:dc="http://purl.org/dc/elements/1.1/"
   xmlns:cc="http://creativecommons.org/ns#"
   xmlns:rdf="http://www.w3.org/1999/02/22-rdf-syntax-ns#"
   xmlns:svg="http://www.w3.org/2000/svg"
   xmlns="http://www.w3.org/2000/svg"
   xmlns:sodipodi="http://sodipodi.sourceforge.net/DTD/sodipodi-0.dtd"
   xmlns:inkscape="http://www.inkscape.org/namespaces/inkscape"
   width="210mm"
   height="297mm"
   viewBox="0 0 744.09448819 1052.3622047"
   id="svg2"
   version="1.1"
   inkscape:version="0.91 r13725"
   sodipodi:docname="rodape-home.svg">
  <defs
     id="defs4" />
  <sodipodi:namedview
     id="base"
     pagecolor="#ffffff"
     bordercolor="#666666"
     borderopacity="1.0"
     inkscape:pageopacity="0.0"
     inkscape:pageshadow="2"
     inkscape:zoom="0.66"
     inkscape:cx="363.50709"
     inkscape:cy="730.96492"
     inkscape:document-units="px"
     inkscape:current-layer="layer1"
     showgrid="false"
     inkscape:snap-nodes="false"
     inkscape:snap-bbox="true"
     inkscape:window-width="1366"
     inkscape:window-height="705"
     inkscape:window-x="-8"
     inkscape:window-y="-8"
     inkscape:window-maximized="1" />
  <metadata
     id="metadata7">
    <rdf:RDF>
      <cc:Work
         rdf:about="">
        <dc:format>image/svg+xml</dc:format>
        <dc:type
           rdf:resource="http://purl.org/dc/dcmitype/StillImage" />
        <dc:title></dc:title>
      </cc:Work>
    </rdf:RDF>
  </metadata>
  <g
     inkscape:label="Camada 1"
     inkscape:groupmode="layer"
     id="layer1">
    <path
       style="fill:none;fill-rule:evenodd;stroke:#000000;stroke-width:1px;stroke-linecap:butt;stroke-linejoin:miter;stroke-opacity:1"
       d="m -284.84849,111.45312 3.0303,486.36363 1204.54546,-3.0303 0,-480.30304 c 0,0 -401.51515,120.20203 -603.0303,120.45455 -201.51516,0.25253 -604.54546,-123.48484 -604.54546,-123.48484 z"
       id="path3342"
       inkscape:connector-curvature="0"
       sodipodi:nodetypes="cccczc" />
    <path
       style="fill:#a0a0a0;stroke:none;stroke-width:1px;stroke-linecap:butt;stroke-linejoin:miter;stroke-opacity:1"
       d="m -280.69077,555.60019 c -0.5116,-22.39492 -1.35987,-130.98395 -1.88505,-241.30895 l -0.95488,-200.59089 3.59465,0.76767 c 1.97706,0.42221 25.07193,6.94354 51.32193,14.49183 198.464088,57.06913 378.41627,95.1506 495.45454,104.84808 25.72361,2.13138 81.18497,2.14314 106.06061,0.0225 94.71918,-8.07484 219.04629,-31.49866 374.24242,-70.50904 49.69011,-12.4902 130.11543,-34.10527 159.4697,-42.85901 l 14.77273,-4.40537 0,238.25073 0,238.25073 -32.95455,0.9217 c -18.125,0.50694 -288.38295,1.35289 -600.57324,1.87991 l -567.6187,0.95821 -0.93016,-40.71808 z"
       id="path3344"
       inkscape:connector-curvature="0" />
  </g>
</svg>
